<svg xmlns="http://www.w3.org/2000/svg" width="1600" height="900" viewBox="0 0 1600 900" role="img" aria-labelledby="title desc">
  <title id="title">Anirvium SuperTuriya trajectory-intelligence workspace</title>
  <desc id="desc">Presentation render of the implemented SuperTuriya interface showing trajectory health, evaluation metrics, closed intelligence loop, trace graph, failures, improvements, memory, and infrastructure.</desc>
  <defs>
    <radialGradient id="orb"><stop stop-color="#8b7cff" stop-opacity=".36"/><stop offset=".62" stop-color="#8b7cff" stop-opacity=".08"/><stop offset="1" stop-color="#0f1118"/></radialGradient>
    <linearGradient id="bg" x1="0" y1="0" x2="1" y2="1"><stop stop-color="#090b10"/><stop offset="1" stop-color="#11131b"/></linearGradient>
    <linearGradient id="loop" x1="0" y1="0" x2="1" y2="0"><stop stop-color="#72e6d1" stop-opacity=".08"/><stop offset=".5" stop-color="#8b7cff" stop-opacity=".12"/><stop offset="1" stop-color="#72e6d1" stop-opacity=".05"/></linearGradient>
    <filter id="glow"><feGaussianBlur stdDeviation="5" result="b"/><feMerge><feMergeNode in="b"/><feMergeNode in="SourceGraphic"/></feMerge></filter>
    <style>
      .sans{font-family:Inter,ui-sans-serif,system-ui,-apple-system,BlinkMacSystemFont,"Segoe UI",sans-serif}.mono{font-family:ui-monospace,SFMono-Regular,Menlo,monospace}.text{fill:#e3e5ed}.soft{fill:#a0a4b2}.muted{fill:#6e7485}.teal{fill:#72e6d1}.violet{fill:#a69aff}.amber{fill:#f4c76b}.red{fill:#ff7c87}.line{stroke:#292d3a}.card{fill:#12141c;stroke:#292d3a}.tiny{font-size:10px}.small{font-size:12px}.body{font-size:14px}.title{font-size:23px;font-weight:650}.label{font-size:10px;font-weight:700;letter-spacing:1.4px}
    </style>
  </defs>
  <rect width="1600" height="900" fill="url(#bg)"/><rect x="18" y="18" width="1564" height="864" rx="18" fill="#0d0f16" stroke="#272b37"/>
  <!-- Sidebar -->
  <rect x="18" y="18" width="224" height="864" rx="18" fill="#0f1118"/><line x1="242" y1="18" x2="242" y2="882" class="line"/>
  <circle cx="48" cy="50" r="11" fill="#8b7cff" opacity=".2"/><path d="M43 50h10M48 45v10" stroke="#a69aff" stroke-width="2"/><text x="68" y="56" class="sans text" font-size="18" font-weight="700">Anirvium</text>
  <circle cx="47" cy="103" r="7" fill="none" stroke="#565c6b"/><text x="64" y="108" class="sans muted small">Sarvagun</text>
  <rect x="31" y="124" width="197" height="40" rx="9" fill="#8b7cff" opacity=".12"/><circle cx="47" cy="144" r="7" fill="none" stroke="#a69aff"/><text x="64" y="149" class="sans text small" font-weight="650">SuperTuriya</text>
  <text x="34" y="209" class="sans muted label">OBSERVED RUN</text>
  <rect x="31" y="223" width="197" height="80" rx="11" class="card"/><text x="45" y="247" class="mono violet tiny">run…28afa7a3</text><text x="45" y="269" class="sans soft small">CS-002 · Priya Shah</text><text x="45" y="288" class="sans muted tiny">Hybrid governed · completed</text>
  <text x="34" y="347" class="sans muted label">TRACE SUMMARY</text>
  <g class="sans"><text x="38" y="379" class="text" font-size="20" font-weight="700">13</text><text x="67" y="379" class="muted tiny">agent spans</text><text x="38" y="412" class="text" font-size="20" font-weight="700">46</text><text x="67" y="412" class="muted tiny">lifecycle events</text><text x="38" y="445" class="text" font-size="20" font-weight="700">3</text><text x="67" y="445" class="muted tiny">memories recalled</text><text x="38" y="478" class="text" font-size="20" font-weight="700">1</text><text x="67" y="478" class="muted tiny">memory created</text></g>
  <rect x="31" y="757" width="197" height="107" rx="12" class="card"/><circle cx="47" cy="778" r="4" class="teal" filter="url(#glow)"/><text x="60" y="782" class="sans text small" font-weight="650">Safe learning loop</text><text x="45" y="809" class="sans muted tiny">Policy mutation</text><text x="157" y="809" class="sans teal tiny">disabled</text><text x="45" y="832" class="sans muted tiny">Memory influence</text><text x="157" y="832" class="sans violet tiny">advisory</text><text x="45" y="853" class="sans muted tiny">Data</text><text x="157" y="853" class="sans soft tiny">synthetic</text>

  <!-- Header and hero -->
  <line x1="242" y1="96" x2="1582" y2="96" class="line"/>
  <text x="274" y="45" class="sans muted label">SUPERTURIYA INTELLIGENCE</text><text x="274" y="73" class="sans text title">See why Sarvagun acted—and how SuperTuriya improves it.</text>
  <rect x="1380" y="41" width="166" height="30" rx="15" fill="#72e6d1" opacity=".055" stroke="#72e6d1" stroke-opacity=".2"/><circle cx="1398" cy="56" r="4" class="teal"/><text x="1410" y="60" class="sans teal tiny">trajectory evaluated</text>

  <rect x="268" y="117" width="1278" height="130" rx="15" fill="#12141c" stroke="#292d3a"/>
  <circle cx="350" cy="182" r="49" fill="url(#orb)" stroke="#8b7cff" stroke-opacity=".34"/><text x="350" y="181" text-anchor="middle" class="sans text" font-size="27" font-weight="750">90.2</text><text x="350" y="201" text-anchor="middle" class="sans muted" font-size="9">TRAJECTORY HEALTH</text>
  <text x="428" y="154" class="sans violet label">SUPERTURIYA INTELLIGENCE</text>
  <text x="428" y="181" class="sans text" font-size="18" font-weight="650">Observe the full execution. Evaluate the outcome. Reuse trusted intelligence.</text>
  <text x="428" y="206" class="sans muted small">The run was evidence-grounded and policy compliant; a sensitive financial commitment remains held for approval.</text>
  <g class="sans"><rect x="1120" y="144" width="96" height="76" rx="10" class="card"/><text x="1135" y="166" class="muted tiny">GROUNDING</text><text x="1135" y="197" class="teal" font-size="24" font-weight="700">100%</text><rect x="1227" y="144" width="96" height="76" rx="10" class="card"/><text x="1242" y="166" class="muted tiny">POLICY</text><text x="1242" y="197" class="teal" font-size="24" font-weight="700">100%</text><rect x="1334" y="144" width="96" height="76" rx="10" class="card"/><text x="1349" y="166" class="muted tiny">CX QUALITY</text><text x="1349" y="197" class="violet" font-size="24" font-weight="700">92%</text><rect x="1441" y="144" width="84" height="76" rx="10" class="card"/><text x="1454" y="166" class="muted tiny">RISK</text><text x="1454" y="197" class="amber" font-size="24" font-weight="700">held</text></g>

  <!-- Closed loop -->
  <rect x="268" y="263" width="1278" height="82" rx="13" fill="url(#loop)" stroke="#8b7cff" stroke-opacity=".2"/>
  <text x="291" y="286" class="sans violet label">CLOSED INTELLIGENCE LOOP</text>
  <text x="291" y="314" class="sans text body" font-weight="650">Sarvagun executes  →  SuperTuriya observes  →  evaluates  →  discovers  →  remembers  →  guides the next plan</text>
  <g class="sans tiny"><rect x="1119" y="280" width="91" height="42" rx="9" class="card"/><text x="1133" y="297" class="muted">EVENTS</text><text x="1133" y="316" class="text" font-size="15" font-weight="700">46</text><rect x="1219" y="280" width="91" height="42" rx="9" class="card"/><text x="1233" y="297" class="muted">RECALLED</text><text x="1233" y="316" class="text" font-size="15" font-weight="700">3</text><rect x="1319" y="280" width="91" height="42" rx="9" class="card"/><text x="1333" y="297" class="muted">APPLIED</text><text x="1333" y="316" class="text" font-size="15" font-weight="700">3</text><rect x="1419" y="280" width="103" height="42" rx="9" class="card"/><text x="1433" y="297" class="muted">CREATED</text><text x="1433" y="316" class="text" font-size="15" font-weight="700">1</text></g>

  <!-- Trace graph -->
  <rect x="268" y="361" width="878" height="329" rx="14" fill="#0b0d13" stroke="#292d3a"/>
  <text x="291" y="390" class="sans muted label">DISCOVERED EXECUTION PATH</text><text x="291" y="413" class="sans text body" font-weight="650">13-step trace graph · evidence, tools, risk, and approval state</text>
  <rect x="912" y="378" width="91" height="23" rx="11" fill="#72e6d1" opacity=".07"/><text x="930" y="394" class="sans teal tiny">SARVAGUN</text><rect x="1010" y="378" width="112" height="23" rx="11" fill="#8b7cff" opacity=".09"/><text x="1028" y="394" class="sans violet tiny">SUPERTURIYA</text>
  <g stroke-width="2" fill="none"><path d="M322 493H433M486 493H597M650 493H761M814 493H925M978 493h86" stroke="#72e6d1" stroke-opacity=".55"/><path d="M1064 493c45 0 42 86-12 86H854M801 579H690M637 579H526" stroke="#8b7cff" stroke-opacity=".7"/></g>
  <g class="sans">
    <g><rect x="292" y="457" width="130" height="72" rx="10" fill="#121820" stroke="#72e6d1" stroke-opacity=".45"/><text x="306" y="478" class="teal tiny">01 · SARVAGUN</text><text x="306" y="499" class="text small" font-weight="650">Planner</text><text x="306" y="516" class="muted tiny">evidence contract</text></g>
    <g><rect x="433" y="457" width="142" height="72" rx="10" fill="#121820" stroke="#72e6d1" stroke-opacity=".45"/><text x="447" y="478" class="teal tiny">03 · SARVAGUN</text><text x="447" y="499" class="text small" font-weight="650">Triage</text><text x="447" y="516" class="amber tiny">recontact risk</text></g>
    <g><rect x="597" y="457" width="142" height="72" rx="10" fill="#121820" stroke="#72e6d1" stroke-opacity=".45"/><text x="611" y="478" class="teal tiny">04 · SARVAGUN</text><text x="611" y="499" class="text small" font-weight="650">Retrieval</text><text x="611" y="516" class="muted tiny">governed evidence</text></g>
    <g><rect x="761" y="457" width="142" height="72" rx="10" fill="#121820" stroke="#72e6d1" stroke-opacity=".45"/><text x="775" y="478" class="teal tiny">05 · SARVAGUN</text><text x="775" y="499" class="text small" font-weight="650">Policy gate</text><text x="775" y="516" class="teal tiny">compliant</text></g>
    <g><rect x="925" y="457" width="139" height="72" rx="10" fill="#201a19" stroke="#f4c76b" stroke-opacity=".65"/><text x="939" y="478" class="amber tiny">09 · SARVAGUN</text><text x="939" y="499" class="text small" font-weight="650">Human handoff</text><text x="939" y="516" class="amber tiny">approval required</text></g>
    <g><rect x="922" y="543" width="142" height="72" rx="10" fill="#171427" stroke="#a69aff" stroke-opacity=".65"/><text x="936" y="564" class="violet tiny">10 · SUPERTURIYA</text><text x="936" y="585" class="text small" font-weight="650">Critic</text><text x="936" y="602" class="muted tiny">score + diagnose</text></g>
    <g><rect x="761" y="543" width="142" height="72" rx="10" fill="#171427" stroke="#a69aff" stroke-opacity=".65"/><text x="775" y="564" class="violet tiny">11 · SUPERTURIYA</text><text x="775" y="585" class="text small" font-weight="650">Reflection</text><text x="775" y="602" class="muted tiny">pattern review</text></g>
    <g><rect x="597" y="543" width="142" height="72" rx="10" fill="#171427" stroke="#a69aff" stroke-opacity=".65"/><text x="611" y="564" class="violet tiny">12 · SUPERTURIYA</text><text x="611" y="585" class="text small" font-weight="650">Learning</text><text x="611" y="602" class="muted tiny">trusted memory</text></g>
    <g><rect x="433" y="543" width="142" height="72" rx="10" fill="#171427" stroke="#a69aff" stroke-opacity=".65"/><text x="447" y="564" class="violet tiny">13 · SUPERTURIYA</text><text x="447" y="585" class="text small" font-weight="650">Optimizer</text><text x="447" y="602" class="muted tiny">workflow guidance</text></g>
  </g>
  <rect x="291" y="642" width="831" height="29" rx="8" fill="#151821"/><text x="306" y="661" class="mono muted tiny">selected: human_handoff · approval_state=APPROVAL_REQUIRED · evidence=POL-CS-PAY-001 · confidence=0.94</text>

  <!-- Insight panels -->
  <rect x="1162" y="361" width="384" height="156" rx="14" class="card"/><circle cx="1187" cy="389" r="9" fill="#ff7c87" opacity=".1"/><text x="1183" y="393" class="sans red tiny">!</text><text x="1205" y="386" class="sans text small" font-weight="650">Failure signals</text><text x="1205" y="403" class="sans muted tiny">What degraded this run</text><text x="1515" y="393" class="sans text" font-size="16" font-weight="700">2</text>
  <rect x="1185" y="425" width="50" height="18" rx="9" fill="#f4c76b" opacity=".09"/><text x="1197" y="438" class="sans amber" font-size="8">MEDIUM</text><text x="1245" y="439" class="sans text tiny" font-weight="650">Missed prior commitment</text><text x="1185" y="459" class="sans muted tiny">Repeated contact increased escalation risk.</text>
  <rect x="1185" y="475" width="50" height="18" rx="9" fill="#ff7c87" opacity=".08"/><text x="1199" y="488" class="sans red" font-size="8">HIGH</text><text x="1245" y="489" class="sans text tiny" font-weight="650">Sensitive outcome claim</text>

  <rect x="1162" y="533" width="384" height="157" rx="14" fill="#151326" stroke="#342d53"/><circle cx="1187" cy="561" r="9" fill="#8b7cff" opacity=".15"/><text x="1183" y="565" class="sans violet tiny">✦</text><text x="1205" y="558" class="sans text small" font-weight="650">Improvement plan</text><text x="1205" y="575" class="sans muted tiny">Extracted from this trajectory</text><text x="1515" y="565" class="sans text" font-size="16" font-weight="700">3</text>
  <text x="1185" y="610" class="sans violet tiny" font-weight="700">P0 · RESPONSE DRAFTING</text><text x="1185" y="630" class="sans text tiny">Require acknowledgement of repeated contact</text><text x="1185" y="648" class="sans muted tiny">Expected lift: customer tone + actionability.</text><text x="1185" y="674" class="sans teal tiny">Stored as evaluated advisory memory</text>

  <!-- Infrastructure -->
  <rect x="268" y="708" width="1278" height="139" rx="14" class="card"/><text x="291" y="737" class="sans muted label">INTELLIGENCE INFRASTRUCTURE</text>
  <g class="sans"><rect x="291" y="756" width="285" height="67" rx="10" fill="#0f1118" stroke="#292d3a"/><text x="309" y="778" class="muted tiny">VECTOR INDEX</text><text x="309" y="800" class="text body" font-weight="650">static snapshot</text><text x="450" y="800" class="muted tiny">Qdrant in Docker</text><rect x="590" y="756" width="285" height="67" rx="10" fill="#0f1118" stroke="#292d3a"/><text x="608" y="778" class="muted tiny">KNOWLEDGE LAYERS</text><text x="608" y="800" class="text body" font-weight="650">34 governed records</text><text x="608" y="816" class="muted tiny">policies · procedures · templates · evals</text><rect x="889" y="756" width="285" height="67" rx="10" fill="#0f1118" stroke="#292d3a"/><text x="907" y="778" class="muted tiny">TRAJECTORY GRAPH</text><text x="907" y="800" class="text body" font-weight="650">trace-derived nodes</text><text x="907" y="816" class="muted tiny">evidence · tools · risks · actions</text><rect x="1188" y="756" width="335" height="67" rx="10" fill="#0f1118" stroke="#292d3a"/><text x="1206" y="778" class="muted tiny">SUPERTURIYA MEMORY</text><text x="1206" y="800" class="text body" font-weight="650">evaluated advisory recall</text><text x="1206" y="816" class="muted tiny">Redis + vector roles separated</text></g>

  <text x="30" y="894" class="sans muted" font-size="8">PRESENTATION RENDER · Current implemented interface structure · Static synthetic demo shown · Not a live AMD execution screenshot</text>
</svg>
